<svg width="215" height="129" viewBox="0 0 215 129" fill="none" xmlns="http://www.w3.org/2000/svg">
<path d="M127.592 0C130.033 0 131.846 1.19576 132.959 2.20508C134.062 3.2067 134.905 4.40626 135.502 5.33691C136.087 6.25079 136.692 7.32766 137.055 7.94434C137.3 8.35872 137.462 8.61035 137.556 8.75195L137.653 8.89941L137.66 8.90723C139.588 10.9219 141.168 13.2087 142.608 16.001C146.246 23.0561 148.192 30.3724 149.797 37.0889L150.466 39.9277L150.47 39.9424L150.473 39.957C150.555 40.3165 150.638 40.6694 150.724 41.0371L150.988 42.1719L151.029 42.3506L151.057 42.5322C151.06 42.5457 151.067 42.5796 151.082 42.6367C151.105 42.7288 151.137 42.8439 151.182 42.9912L151.233 43.1562L151.272 43.3242C151.485 44.2478 151.986 46.0805 152.077 47.9268H152.079C152.09 48.1266 152.105 48.2601 152.429 48.5635C152.842 48.9487 153.689 49.5022 155.3 50.1016L156.039 50.3613L156.042 50.3623C162.888 52.6399 170.331 54.0876 177.961 55.4541L181.241 56.0371L181.266 56.042L181.291 56.0459C181.848 56.1503 182.411 56.2473 183.017 56.3516C183.577 56.4478 184.175 56.5516 184.781 56.6641C185.495 56.7812 186.221 56.9081 186.917 57.0293L188.957 57.3779L188.974 57.3809L188.993 57.3838C192.406 57.9696 196.24 58.5978 199.921 59.498L200.654 59.6826L200.672 59.6865C201.226 59.8306 202.013 59.9752 203.228 60.208C204.332 60.4196 205.69 60.6874 207.002 61.0449C208.259 61.3877 209.815 61.9009 211.185 62.7324C212.493 63.5263 214.528 65.1726 214.936 68.0566C215.349 70.9589 213.838 73.0946 212.743 74.2227C211.626 75.373 210.253 76.225 209.153 76.8252C207.998 77.4555 206.794 77.9921 205.82 78.4102C204.718 78.8832 204.096 79.1314 203.635 79.3525L203.628 79.3564C197.67 82.2036 190.995 83.5268 184.98 84.4756L184.979 84.4746C176.235 85.9347 167.109 87.3288 157.782 88.6582C158.076 91.8008 158.603 95.0131 159.165 98.3281H159.163C159.238 98.738 159.293 99.1306 159.33 99.3955C159.353 99.562 159.371 99.6912 159.387 99.7979L159.432 100.065L159.446 100.142L159.459 100.218C159.595 101.079 159.747 101.954 159.905 102.87C160.06 103.769 160.222 104.708 160.371 105.643L160.586 106.921C160.66 107.354 160.738 107.794 160.818 108.247C160.975 109.141 161.139 110.079 161.289 111.025C161.513 112.301 161.595 113.612 161.511 114.879L161.508 114.878C161.378 117.267 160.302 120.173 159.395 122.164C158.889 123.276 158.299 124.403 157.682 125.348C157.561 125.534 157.425 125.729 157.279 125.93C157.136 126.248 156.978 126.516 156.83 126.729C156.506 127.196 156.166 127.517 155.934 127.712C155.693 127.915 155.474 128.06 155.316 128.157C155.153 128.257 155.008 128.333 154.896 128.388C154.677 128.495 154.489 128.568 154.369 128.611C154.129 128.698 153.923 128.753 153.802 128.783C153.549 128.847 153.312 128.889 153.13 128.917C152.947 128.945 152.707 128.975 152.446 128.99C152.322 128.997 152.11 129.006 151.855 128.995C151.727 128.989 151.526 128.976 151.285 128.938C151.161 128.919 151 128.89 150.815 128.844C150.635 128.799 150.383 128.725 150.092 128.604C149.903 128.524 149.649 128.402 149.365 128.224C149.128 128.145 148.887 128.062 148.649 127.977C147.571 127.591 146.291 127.085 145.034 126.564C142.543 125.533 139.856 124.332 138.614 123.71L138.596 123.701L138.58 123.692C134.95 121.84 132.182 119.576 130.308 117.896C129.618 117.28 128.91 116.66 128.181 116.022C127.455 115.387 126.708 114.733 125.971 114.076C121.01 109.735 115.822 105.146 111.074 100.415L111.052 100.394L111.032 100.372C110.016 99.3351 109.124 98.9092 107.169 98.9092C106.451 98.9092 105.544 98.9641 104.444 99.1211L104.439 99.1221C95.6023 100.375 87.257 102.851 78.8063 105.379L78.8053 105.378L77.2301 105.859L77.2194 105.862C72.8315 107.188 68.3275 108.475 63.5475 109.494L63.4313 109.518C63.4032 109.525 63.3691 109.536 63.3082 109.553C63.2465 109.57 63.1643 109.592 63.0719 109.616C62.7106 109.719 61.8759 109.962 60.9254 110.087L60.8717 110.094L60.818 110.1C59.5312 110.24 57.6314 110.467 55.7575 110.467C55.3842 110.467 54.8323 110.512 53.9938 110.608C53.2621 110.692 52.2218 110.827 51.2907 110.911C50.3461 110.997 49.1882 111.065 48.0436 110.973C46.9957 110.888 45.296 110.625 43.7672 109.521V109.52C41.8849 108.165 40.7799 106.271 40.4625 104.185C40.1764 102.304 40.5768 100.595 40.9821 99.3896C41.3996 98.1473 41.9717 97.0137 42.4196 96.1758C42.8365 95.3956 43.066 95.002 43.2477 94.6611L43.4186 94.3252C45.1492 90.6189 48.0665 87.5759 50.1432 85.4766L50.1539 85.4658L50.1657 85.4551C50.8006 84.821 51.4246 84.1832 52.0709 83.5234C52.7 82.8813 53.3504 82.2171 54.0182 81.5498C55.1526 80.394 56.2885 79.2463 57.4166 78.1025C53.2994 76.657 49.3076 75.3462 46.0201 74.2676C40.4702 72.4466 35.104 70.2789 30.1285 68.3125L30.1198 68.3086L30.11 68.3047C26.4201 66.8292 22.7992 65.3678 19.1305 64.0547L19.1256 64.0527C17.7552 63.5607 13.2556 62.0535 9.31995 60.2764C7.38674 59.4034 5.26089 58.3232 3.62464 57.0977C2.82855 56.5014 1.82922 55.6396 1.08753 54.4854C0.301316 53.2617 -0.483576 51.1924 0.370735 48.8379C1.12 46.7699 2.75351 45.7139 3.66468 45.2383C4.68139 44.7076 5.78021 44.3886 6.72425 44.1777C8.64194 43.7494 10.932 43.5533 13.1178 43.4697C17.5424 43.3006 22.4906 43.563 25.3951 43.8662C26.499 43.9814 28.0965 44.0695 29.8903 44.166C31.5805 44.2569 33.4664 44.3571 34.8776 44.5039C40.371 45.0672 46.1313 45.6709 51.7291 46.3525C62.3024 47.6137 73.0567 48.4685 83.6539 49.333L86.943 49.585C87.1969 49.5893 87.4261 49.5977 87.5866 49.6045C87.8392 49.6152 87.9388 49.6191 88.0114 49.6191C88.8527 49.6191 89.207 49.4996 89.3131 49.4551C89.361 49.435 89.4256 49.4088 89.5641 49.2422C89.9915 48.654 90.4442 48.1034 90.7799 47.6943C91.9818 46.2297 93.0024 44.9414 93.7916 43.6924L93.8121 43.6602L93.8326 43.6289L94.8287 42.1035C100.897 32.5623 107.056 22.8095 112.464 13.0859C113.275 11.5795 114.448 9.65678 116.592 7.98242C117.579 6.82802 119.123 4.92268 120.299 3.71289C121.051 2.94012 121.987 2.07578 123.083 1.38574C124.182 0.693107 125.721 0.000111081 127.592 0ZM127.217 10.9502C126.801 11.3977 126.346 11.9264 125.821 12.5537C125.225 13.2645 124.505 14.1413 123.79 14.9541L123.397 15.3994L122.912 15.7412C122.257 16.2016 121.849 16.7428 121.242 17.876L121.203 17.9463C115.632 27.9615 109.323 37.9476 103.267 47.4697L103.234 47.5205L102.206 49.0967L102.205 49.0957C101.058 50.9002 99.6965 52.5926 98.5104 54.0381C98.0855 54.5559 97.8076 54.8973 97.5905 55.2061L97.5035 55.3301L97.4088 55.4492C94.9793 58.4926 91.7085 59.6191 88.0114 59.6191C87.6838 59.6191 87.354 59.6038 87.1637 59.5957C86.932 59.5859 86.8038 59.5811 86.6959 59.5811H86.5045L82.8825 59.3037L82.8707 59.3027L82.858 59.3018C72.3051 58.4408 61.3384 57.5704 50.5328 56.2812L50.5201 56.2793C45.0236 55.61 39.3455 55.0137 33.859 54.4512L33.8493 54.4502C32.7453 54.335 31.1471 54.2478 29.3532 54.1514C27.6589 54.0602 25.7682 53.9599 24.3561 53.8125C23.0566 53.6769 21.2299 53.5486 19.2311 53.4766C20.6032 53.9751 21.7692 54.3778 22.4987 54.6396C26.3784 56.0283 30.1931 57.5681 33.8229 59.0195C38.9064 61.0287 43.9421 63.0611 49.1373 64.7656C52.8327 65.9781 57.5576 67.5278 62.3815 69.251L64.4528 70L64.4586 70.002C65.1284 70.2481 66.0221 70.5734 66.7526 70.8779C67.1069 71.0257 67.5669 71.2267 67.9996 71.4648C68.2079 71.5795 68.5461 71.7768 68.903 72.0557C69.0742 72.1895 69.958 72.8581 70.5045 74.0879L70.609 74.3408L70.7037 74.6133C71.1328 75.9591 70.889 77.1018 70.7506 77.6006C70.5827 78.206 70.3405 78.6715 70.192 78.9326C69.889 79.4656 69.5347 79.9113 69.3034 80.1885C68.8241 80.7628 68.2408 81.3539 67.7741 81.8145C65.5974 84.0686 63.2674 86.4024 61.1549 88.5547L61.1373 88.5732L61.1198 88.5908C60.4849 89.2248 59.8608 89.8618 59.2145 90.5215C58.5742 91.1751 57.9114 91.8519 57.2311 92.5312C55.1007 94.6862 53.3643 96.6368 52.4625 98.5918L52.444 98.6318L52.4254 98.6709C52.2271 99.0819 51.9999 99.4999 51.8112 99.8438C51.6077 100.214 51.4363 100.52 51.2535 100.861C51.7433 100.806 52.2553 100.743 52.8551 100.674C53.7049 100.576 54.7584 100.467 55.7575 100.467C56.9451 100.467 58.2173 100.324 59.6373 100.169C59.693 100.161 59.7766 100.147 59.8991 100.117C60.0441 100.082 60.1749 100.044 60.4078 99.9785L60.4498 99.9668L60.4928 99.9551C60.5263 99.9463 60.5644 99.9355 60.6237 99.9189C60.6723 99.9054 60.7646 99.8796 60.8502 99.8564C60.9915 99.8183 61.2194 99.7592 61.4948 99.7061C65.307 98.8917 68.9825 97.8815 72.7174 96.7725L74.3268 96.29L75.9166 95.8057L75.9293 95.8018L75.941 95.7979C84.0423 93.3749 92.7798 90.7636 102.13 89.3535L103.036 89.2207C104.564 89.0029 105.943 88.9092 107.169 88.9092C111.504 88.9092 115.074 90.2081 118.175 93.374C122.105 97.2868 126.394 101.138 130.727 104.947L132.593 106.582L132.612 106.599L132.63 106.615C133.323 107.234 134.034 107.855 134.766 108.496L136.976 110.442L136.985 110.451L137.591 110.984C139.053 112.246 140.883 113.637 143.099 114.771C144.035 115.24 146.463 116.333 148.858 117.324C149.37 117.536 149.868 117.736 150.337 117.922C150.683 117.151 150.995 116.347 151.217 115.632C151.333 115.262 151.414 114.948 151.466 114.7C151.515 114.47 151.525 114.357 151.526 114.343L151.529 114.28L151.533 114.218C151.561 113.797 151.535 113.272 151.432 112.708L151.422 112.65L151.413 112.593C151.277 111.738 151.126 110.875 150.968 109.977C150.813 109.091 150.649 108.164 150.5 107.243L150.499 107.234L150.498 107.227C150.361 106.366 150.209 105.489 150.05 104.573C149.894 103.669 149.731 102.725 149.582 101.785L149.583 101.784C149.513 101.393 149.46 101.022 149.424 100.769C149.378 100.436 149.352 100.253 149.323 100.099L149.313 100.048L149.304 99.9971C148.566 95.636 147.765 90.7916 147.58 85.9189L147.581 85.918C147.538 84.9776 147.546 82.4454 149.834 80.6377C150.731 79.9288 151.666 79.6059 152.263 79.4395C152.88 79.2675 153.513 79.163 154.051 79.0879C164.14 77.6666 173.992 76.1722 183.378 74.6045L183.4 74.6006L183.422 74.5977C189.303 73.6701 194.751 72.5154 199.316 70.334C199.628 70.1847 200.008 70.0164 200.403 69.8467C199.638 69.6997 198.828 69.5401 198.155 69.3652C194.751 68.4939 191.112 67.8927 187.338 67.2451C186.623 67.1279 185.898 67.0021 185.202 66.8809C184.497 66.7581 183.821 66.6402 183.163 66.5322L183.107 66.5234L183.05 66.5127C182.493 66.4083 181.93 66.3113 181.324 66.207C180.73 66.1049 180.092 65.9957 179.448 65.875C170.848 64.3528 161.514 62.7208 152.885 59.8506C150.125 58.9341 147.562 57.7004 145.603 55.8711C143.497 53.9042 142.254 51.3913 142.093 48.4766L142.092 48.4512L142.09 48.4258C142.061 47.76 141.896 47.1589 141.562 45.7217C141.451 45.3478 141.308 44.8276 141.208 44.2637C141.136 43.9508 141.064 43.6406 140.989 43.3193C140.906 42.9649 140.819 42.596 140.732 42.2158L140.06 39.376C138.54 33.0296 136.909 26.98 134.045 21.2227L133.721 20.585C132.645 18.4989 131.594 17.0329 130.434 15.8203C129.559 14.9072 128.863 13.7366 128.443 13.0254C127.953 12.1941 127.611 11.5816 127.217 10.9502Z" fill="white"/>
</svg>
